<mxfile host="app.diagrams.net" modified="2024-07-12T18:50:05.967Z" agent="Mozilla/5.0 (Windows NT 10.0; Win64; x64) AppleWebKit/537.36 (KHTML, like Gecko) Chrome/126.0.0.0 Safari/537.36" etag="7hxy_VM0WGK5duNTTxQJ" version="24.6.5" type="device">
  <diagram name="Page-1" id="BeJnPhK7YpYlj5ZIv7ab">
    <mxGraphModel dx="1034" dy="420" grid="1" gridSize="10" guides="1" tooltips="1" connect="1" arrows="1" fold="1" page="1" pageScale="1" pageWidth="850" pageHeight="1100" math="0" shadow="0">
      <root>
        <mxCell id="0" />
        <mxCell id="1" parent="0" />
        <mxCell id="TxIqbtNnuaZMp80CDxAN-1" value="" style="html=1;verticalLabelPosition=bottom;align=center;labelBackgroundColor=#ffffff;verticalAlign=top;strokeWidth=2;strokeColor=#0080F0;shadow=0;dashed=0;shape=mxgraph.ios7.icons.user;" vertex="1" parent="1">
          <mxGeometry x="530" y="40" width="40" height="40" as="geometry" />
        </mxCell>
        <mxCell id="TxIqbtNnuaZMp80CDxAN-2" value="" style="rounded=1;whiteSpace=wrap;html=1;fillColor=#D4E1F5;" vertex="1" parent="1">
          <mxGeometry x="210" y="40" width="310" height="40" as="geometry" />
        </mxCell>
        <mxCell id="TxIqbtNnuaZMp80CDxAN-4" value="" style="rounded=1;whiteSpace=wrap;html=1;fillColor=#CCCCFF;" vertex="1" parent="1">
          <mxGeometry x="110" y="90" width="380" height="130" as="geometry" />
        </mxCell>
        <mxCell id="TxIqbtNnuaZMp80CDxAN-6" value="" style="shape=image;verticalLabelPosition=bottom;labelBackgroundColor=default;verticalAlign=top;aspect=fixed;imageAspect=0;image=data:image/jpeg,/9j/4AAQSkZJRgABAQEAkACQAAD/4QAiRXhpZgAATU0AKgAAAAgAAQESAAMAAAABAAEAAAAAAAD/2wBDAAIBAQIBAQICAgICAgICAwUDAwMDAwYEBAMFBwYHBwcGBwcICQsJCAgKCAcHCg0KCgsMDAwMBwkODw0MDgsMDAz/2wBDAQICAgMDAwYDAwYMCAcIDAwMDAwMDAwMDAwMDAwMDAwMDAwMDAwMDAwMDAwMDAwMDAwMDAwMDAwMDAwMDAwMDAz/wAARCAE7AS0DASIAAhEBAxEB/8QAHwAAAQUBAQEBAQEAAAAAAAAAAAECAwQFBgcICQoL/8QAtRAAAgEDAwIEAwUFBAQAAAF9AQIDAAQRBRIhMUEGE1FhByJxFDKBkaEII0KxwRVS0fAkM2JyggkKFhcYGRolJicoKSo0NTY3ODk6Q0RFRkdISUpTVFVWV1hZWmNkZWZnaGlqc3R1dnd4eXqDhIWGh4iJipKTlJWWl5iZmqKjpKWmp6ipqrKztLW2t7i5usLDxMXGx8jJytLT1NXW19jZ2uHi4+Tl5ufo6erx8vP09fb3+Pn6/8QAHwEAAwEBAQEBAQEBAQAAAAAAAAECAwQFBgcICQoL/8QAtREAAgECBAQDBAcFBAQAAQJ3AAECAxEEBSExBhJBUQdhcRMiMoEIFEKRobHBCSMzUvAVYnLRChYkNOEl8RcYGRomJygpKjU2Nzg5OkNERUZHSElKU1RVVldYWVpjZGVmZ2hpanN0dXZ3eHl6goOEhYaHiImKkpOUlZaXmJmaoqOkpaanqKmqsrO0tba3uLm6wsPExcbHyMnK0tPU1dbX2Nna4uPk5ebn6Onq8vP09fb3+Pn6/9oADAMBAAIRAxEAPwD9/KKKKACiiigAooooAKKKKACiiigAooooAKKKKACiiigBuMD6U2RlRSxbApxNeWftk/F6H4I/s4+KNcebyZ4bGVLY7sfvdjbaqnTlKSjEzqVFCDm+h6hFMs6hkYMvqKexyprgf2YfEM3i34EeGNTuubjUNPhuH/3mRTXfHjdSqR5Zco6c+aKkOHFFFFIsKKKKACiiigAooooAKKKKACiiigAooooAKKKKACiiigAooooAKKKKACiiigAooooAKKKKACiiigAooooAKKKKAG8Yr8wv+C9v7UBeHR/hjpNx5jXLfa73YfmjdGwAfwav0R+NPxU0/wCDPwx1jxJqcyw2ul25lZifwH6kV/P/APET4qah+1R+1s2t37M82uasiKn8KruVV2r/AMBr28lwvPU9s9ony/E2O9nSjh4fFP8AI/ez9lbT/wCzP2cfBEX8X9h2ZP8A35SvQX+7XNfB7TP7F+FXhyzYY+y6bbxf98xqK6Rjwa8aprUbPo6CtTSHUUUVJqFFFFABRRRQAUUUUAFFFFABRRRQAUUUUAFFFFABRRRQAUUUUAFFFFABRRRQAUUUUANVeKGGBQDtrG8ceOdP8AaDcajqVwsNvbrlv7zfQd6iUlFc0iZSSV2bPmU4HNc38OviVpfxQ0GPUNLuFmhft/Ev1FdElFOopq6CMlJXQ6iig81ZQ0cmgnH40Y5Ar5+/4KH/ALZGm/sjfA6+1BpEfWNQja3soN3zbmBXf/wFsVdOlKpNQiY4jEQo03Unsj4o/wCC5f7b66zfx/C/w/dZgt236pJE3yybht8pvowr43/4J6+AX+In7XHgy2Ub0tdRiunH+yjruryvx140v/iJ4sv9a1SZri+1Cdp5XLfxM1fcP/BBH4NN4t/aJv8AxTNF5lno9rJbf7KysFYf+g19vKnHCYJpdj8xp1p5hmSk+r/A/ZG2t1tbdY0G1UXAFSUA5or4U/VAooooAKKKKACiiigAooooAKKKKACiiigAooooAKKKKACiiigAooooAKKKKACiiigAooooAhuZ1tYGkkbCxjJNfCf7Y/x7m+JfjSbSrSZv7L012RQG+WR/u7q+nv2tfiY3w3+EF9PC226usQIPUP8AKf51+ff7y7uP4mkkb/gTV8fxJmElbDU/mfO53imrUYnpX7MXx4uvg542hV5G/sq8kVLiPd8vzfLv/wCA1+gWj6tDremQXlu3mQ3CLIjeoNfl1rWj3Hh/UntLhdk0e3d/3zur7R/YM+KbeLvAMuk3MnmXmmHJP/TM4C/yrPhzHSU3hqnyIyXGSUvYTPoCiiq+oajDpdlNczyLFDChd3Y7VUCvtD6Uxfif8SNJ+EngXUfEWuXUdnpulwNPNI7bQqivwL/4KAftjap+2B8arzVZpJF0mxdoLC33fLGn3dw/3tu6voD/AILBf8FFn+N3i+fwH4XvP+Kd0mVkuZoj8t0/zL/wJdtfBNfY5Ll/so+2nuz834jzh15+wpP3V+IIu5tq/er9tv8Agh/8A2+E/wCyv/bc8Pl3Hi6VL7kfMu0FK/H39nf4U3nxs+NHh/wzYIz3GpXSou1f7vzf+y1/Rp8LPBFr8OPAGkaJZxLDb6fbJGFH05/Wo4gxHLBUl1NuEcHz1XXl0OkHSiiivkT9CCiiigAooooAKKKKACiiigAooooAKKKKACiiigAooooAKKKKACiiigAooooAKKM0m4DuKAFoo3UZoA+Vf+Ck2stb23h+zU/JcB2b/gLLXzn8G9HXxB8UNFsXXctxc7cfg1fSH/BSTQXudO0HUFX93a70c/7xWvD/ANk6xF9+0D4b3dEudzf98tX57mlNzzPlfdHyGYR5sfyvyLP7XXhtfDfxov1RdkcyoyD/AHUWut/4J9a4+l/Fe5tg3y30So3/AAHc1S/8FDNMWx+JWmzKNv2iB2/75KrUP/BPnQ5NT+LF1dBfksYg7f8AAty0Uqcqea8se4qdPkx/LHufb+7GM1+bf/BYz/gpKvgnT7j4b+Dr7/iZXCf8TC5ik/1SN/D/ADFe2/8ABUn9v6z/AGUPhhNpelXMb+LdYiZLZVb5rdeV3/VWr8O/E3iS88Ya9dalqFxJc3l5K08sjtuZmZtzf+hV+yZLlvPL21XYniTOvZL6tRevUpSSM8jO7bmb7xptFbXw68F3XxE8a6Xolikklxql0luuxd23cyru/wDHq+t+FH5/GMpS5Yn6F/8ABBD9l1tf8X6p8RNStt1pYDydOcj7swb5v/HWr9ZRyOa8v/Y++Alp+zp8A9B8NwQrHNb2yNdED/WTbRub9K9Q+6tfn2YYr29dzP17J8F9Vw0afUdRRRXCeoNI+WjORXA/EX44Wvwr8RWsGswtDp958sV0g3Krf7f92ux0PXrPxFp6XVlPHc28nR423CsY1oSk4J6ozjUi5OK3L4OaKBRWxoFFFFABRRRQAUUUUAFFFFABRRRQAUUUUAFFFFABRRRQAUHmiigCPGK+If2uvH/ibwh8ZNSht9VvrW1kbfCkcpVcbV96+4MbfrXyr/wUS+Gr3EOm+IreP5IR9nlx6s27NeHn8JvCuUOh5ebQk6F4dDwvQ/2lPGWgyLJDrFxIy/8APVmk/wDZq9a+GH/BQnVLC4jh8SWsd5CflMkKrFj3rwDwXb6bea5Hbaq8kNrcfJ5sf3o2/hrrvih+zhrPgCyXUrcf2posq74ru3+ZNn+0a+NwuMxsY+0pyukfOYfEYqK54M+ufiCuh/tT/Be6i0q4jmbHnxgffV4/m2/nXzD+yd4fn8P/ALRmn2d5G0Nxaz7WQ+vzVyfwR+MmpfBzxhb3lrMwtmdVuIt3ysv8VfZ/h74X6H8Q/FWhePtLZYZmxNIq/wDLT5W+9/tfNXuYeUcwqQxC0nDf0PTpyjjJwqR+OO54v/wUls2m8aeGWjXc720q7R/F861Z8KeKdL/YY/Zb1Txr4hKx395EWijY7Wl6bF/WvePiX8HNI8b+MtL8Q6symHQoZDsf/V/eVtx+m2vx5/4K7ftsXP7Q/wAZZvC+lXLDwr4ZdoYokb5WnXcjt+i19TkvD7r5nLEz2Mc0qRwcp4l/FLY+cv2iPjxrf7RnxV1TxPrlzJPcX0rOiFv3cK/3VX+Fa4aiiv1eMYwjyxPzipUlOTqS3Cv0E/4IU/smD4h/FW78fapa79N0FTFAHHyyO68Mv+6y18H+C/Cd9488UWGj6fC1xfahKsUEafeZmr+hb9iH9niz/Zo/Z20Hw7bIomWAT3D4+Znf5ufpmvHzzGeyo8kd2fR8MZf7fE+1ltE9iooor4k/TgooooA4j47/AAwtviv8O77T5l/eKnmxN3DLyK+LPhj8ePE/7PHiySxeSSa3t38q4tpfm+7/AHd33a/Qg/8A66+Lf2+vhGvhjxfD4gtY9ltqTbZdo/5a/Mxavmc+oThFYqjpKJ4ubUpRSr0t0fTHwY+PWjfGXREuLGaOO5Ufvbdm+ZDXdjivy78FeONS+H3iCHUNLuZLa4hb+BvvL/dr7l/Zs/ai0/4y6YlpcPHbazGv7yEt/rPpWmUZ1HEfuquk/wAysvzSNb3J7nsFFGaM19EewBOKbvokrnviR8Q9P+GXhe41PUJlihhHGf4m7CoqVFCPNImUlFXZ0PIoUfNXxt4Q/bs1S5+L32i/by/D90fKEGf9Su773+9X2DpeoxavZRXNu6yQzLuVh3riwWYUcVf2fQ58LjKde/J0LVFFFegdQUUUUAFFFFABRRRQAUUUUAFFFFADWOQKwPiP4FtfiL4RvNKulzHdRlQf7p9a6D+H2pNvvUSipR5ZEyipKzPzR+MHwn1L4R+MLjT72GRY1bdFJ/Cyfw/NXpH7MP7Ta+CHXQfEQW70O4bb+9XzPJr63+K/wa0b4waC1rqkCsyj91MB88R9q+VPiR+wL4i8P3Ukmjyx6la/8s40B8z/AIFXxWIyrE4Ot7bDe9E+ZrZfWw1X2lDVHXfHj9jix8XaY/iLwXJG4kj81rcPuVv4jt/+Jrsv2ENYvovh7eaPqEcsdxp9ww2SKV2D5RiuH/Ztj+KXwi1SPTr7w7qVxosjbWVwv7n/AGh81fTtppFjpP2jUYrWO1mmQyTNj5m78162W4SE6ixEFyPqj0MHRg5fWIrlfVHyx/wV7/a9X9m79nufTNPnVdf8SL5EKZ+byWykjfhkV+Gt3eSahdSTTO0kkjbnd23MzV9Jf8FT/wBp+T9pX9p3UpobhptH0Mva2C7t21fl3/8Ajy1801+v5Tg/Y0U+sj8/4gzD61iXbZaIKKKmsLGTVNQt7aFd0lxKsSD/AGmbatemeGj7o/4Ic/ssf8LT+ObeNNQg3ab4XIlt3K7la4Vl4/75av2YysEXZFUfgK+df+CXv7Osf7PP7J+g2ckPk6lq8KXt8m3aVlK4P8q7T9sn4gXvw6+Dd1dac7R3M0qQbx/CrcGvznPMwjzzrPZH6tlGHWCwKk992dtdfFrw7Y6n9jm1azWfpt85f8a6C2vI72ASQyJJG3RlbcK/K64vJLy6aaV2eaRtzOfvbq9V+Hf7ZPiz4daAmnW7W91BH/q/tG5mWviaHFEHL97GyJo57GUrVFY/QD5qPmr4d/4eEeMv+ffTf++T/wDFUf8ADwjxl/z76b/3yf8A4quz/WTCef3HV/bWHPuLt71wf7RHw3j+J3wu1Kx8tXuvKZrc/wB16+Wf+HhHjL/n303/AL5P/wAVTZP+CgnjKSMq1vpvzf7Lf/FVlWz/AAdSm4O+vkZ1M2w04uDPDtQs30++mt3Xa8Lsjf8AAWq54X8UXng/Wre/sJpIbi3bcpDUnibxBJ4o1y4vpI44ZLht7JGvy1n18Jz8k+aB8n8MvdP0D/Zk/aJtPjZ4XVJnWLVrUbZ4/wC9/tCvVwM1+Y/wv+I198MPGFtqthIyvC3zoG/1i/3a/RD4TfEqx+Kngu11WxkWRZRtkAP3XH3h+dfoGSZt9ZhyT+JH1+V5h7aHJPdHTSuqKWZsKBnJr4N/bD+O83xO8cS2FrI39l6e2xAPuu3fd/wKvq79qTx43gT4OatcRybLmaAxwH/br875pHvLp3b5pJm3H/eauHibHSjFYeHXc5M6xTVqMSOvtf8AYN+Lj+L/AANLot1Lm50sqkW4/M6HJJr5d+LHw5/4Qex0GbZs/tKwinb/AHmrqf2JPFb+Gvjbaru/d3UTxMv+022vEymtPC4xRf2jzcvqSw+JUZfaPv6igdKK/ST7QKKKKACiiigAooooAKKKKACiiigBpyF6Vg+PPiHonw08PT6lrmpWum2cK7meeUJ+Wap/GX4q6V8Ffh1qniXWbhbfT9LhMsjE/l+tfhN+3T/wUD8V/te+PbwyXlxY+GYXK2dgj7V2+r/NtZq9LL8uniZeR4ucZxDBQ7yfQ+8P2jf+C62i6Lrf9g/DbSJPEF9NL9nW4uFeBVcnb8vXd81fUv7HGk/EDWfAlt4j+ImptNquqRCVNPVFVbBT/BlfvfjX4pf8E6PBdn4+/a88J6ffJG9u07S4f7u5F3L/AOg1/QtEgRMD7uOK6c2w9LDWo00cGQYqvjZSr1ntsiVlHGeteB/8FJPj+v7Pn7KHibVI5vK1O5tTDYf7UuV/9lzXvhORX5af8HCnxo82bwv4Ihk2vbyf2hKgP3kdGXmuHLcP7bERgernOK9hhJTW5+ZGqag+qahcXMjbpLh2lb/eZt1V6KK/Q1ofj/mFe7f8E5PgO/7QP7VnhvR2jZ7aGX7XK38K+V865/75rwmv08/4N7vg95t94o8XXUOVUJDZvj3ZXrhzDEeyw8pnq5Phfb4uEGfqVawLaW6xxqFReAB2rm/i78M7X4seCbrR7rhZvnRv7jj7prqulVpdQt4X2vNEjejOBX5xUjGcXCezP1ucIyjys+H9T/YC8aw64YLVbGaz3cSvcKrbfXbXuvw0/Ye8LeHfDEcOtWn9pXzcySbyv8q9whZXGVbcPanHg9a8vD5HhKUuZK/qcVHK8PB8yVzzD/hj3wD/ANANP+/rUf8ADHvgH/oBp/39Nen4PtS4PtXb9Rw3/PtfcdP1Wj/Ijy//AIY98A/9ANP+/po/4Y98A/8AQDT/AL+tXqGD7Uc+1H1HDf8APtfcH1Wj/Ij5F/bR/Zx0P4e+BoNY0OxFqscqxS7SzbtzV8vV+j/7RvhRPGHwf1i3Zd3kwNcKPdFLV+cDK0bMrfKy18PxFg1SrqUFZM+XzrDxp1FKK0YV7h+xR8cT8PPHC6XeTY03UuBuP+rb/wDarw+pLO6ezuo5kba8Lq4/3lrycHiJYeqqkOh5uGrSpVFNH2n/AMFErt4vhHpvlt8sl7hsemxq+OvBentqni3S7ZV3edeRJ/30619Q+Ktfb9oL9j/7X/rtQ0NN9x/eaRV/+vXhn7M+htrnxl0q3ZNzRv5uP91lavYzb9/i4TW0rHqY/wDe4iEltKx6f+3roC6BF4dgVflt4lg/75Vq8u/Zkge4+NGiqn3lnVm/3dy17P8A8FIJM3ejr/tf+ytXMfsCfDiTxD8SZNakTdZ6fEUzt/jbaw/lVYjD82ackO6HXp82YcsT7dA4oL0ye5jt48yOiD/abFYmqfErQ9Ifbc6laRn3evvJVIx+Jn1bko7m6HzTq5zT/ip4f1OZY4dUtHkY4ADV0KSCRAy80RqRn8LCMk9h1FFFaFBRRRQAUUUUAFFFFAH50f8ABwJ8Ybzwz8J/DPhqxlaNdWu5FvMNt3JsDKP++hX5FV+sH/Bwz8O7i98AeD/EFujSRw3sqT4/5ZhYuG/Wvyfr7jI+X6suU/LeJuf67K53n7M/xQk+Dfxw8PeII22/Y7xFkP8AdRmVW/8AHa/oz+HnjrT/AIl+C9N1zS5luNP1SBZ4ZB/Epr+ZCv02/wCCLv8AwUTh0CKD4Y+Lr5Y4GIj0m4lb5V+6qxfzrnzzButD2sN0dXC2aRo1XQns/wAz9VAMH8K/B/8A4LEfEb/hYH7Z2tL5m/8AscfYPvfd2O1futfaglvo010jKVjhaUEdDgbq/nP/AG1NabxB+1d4/vN2/wC0azM6/wDfVefw7T/fOR7XF9W2HhDuzy+iiivsD85Cv3a/4Iz/AA0T4d/sUaMskW26vbm4md/4mDPuH86/CmztZL66SFF3PI21a/pE/ZY8Jw+Cf2ffCNjANq/2TayN/vNChNfPcRVLU4w7n2HCNG+IlU7I2vjJ46Pw3+G2rawieZJZwM6J/eNfnn4u+LniDxfr0l/daldNIz7l527f9mv0T+KXgeL4j+A9T0WRti6hAYt3pXwb4v8A2XPF3hbxBJZ/2XJNHvxE6fdZa/IuJKeIco+z2Po86jXbXJsdr8Gf25tW+H+hNp+qQ/2okf8AqpJCdy/7PFdp/wAPIP8AqCw/99PWb8GP2BjruhNdeKGktppPuRI+1l9/lrtv+HePhXH/AB8XX/f5qywtPN/ZrlenmRh6eY8iszm/+HkP/UFi/wC+no/4eQ/9QWL/AL6euk/4d4eFv+e91/3/ADR/w7w8Lf8APe6/7/mun2ec90aezzDuc3/w8h/6gsX/AH09H/DyH/qCxf8AfT10n/DvDwt/z3uv+/5o/wCHeHhb/nvdf9/zR7POe6D2eY9zkdc/4KGJq+kXNq+iw7biJom+Y/xLXzDrF4mo6pPcJHsSZ2dU/u19l/8ADvTwr/z3uv8Av8a+VvjR4Fj+G/xEv9Jt2Zobdvkz/d3NXh5xRx3Ip4o83MqeJ5VKucrRRRXgnkn0F+wZ40jh8X33h2+2vZanFhYz91nZlrtPhv8As7Xnwu/a0t5ljaTSLqG4lil2/KrYztavnL4L+Jz4O+KOiakr7VtbpXav0n0549SsrW62qWkiVwcdMivssjpwxVFKe9Nn0mV0416SUt4M+aP20Ph9qvxT+J2i6PpcEkrbQzvt+WMYbktW3qvxF8O/sZfDqHRrXy7zWpE3Og/jf/a2/dr1v4seL7P4beCdT1+SOPzrWDhto3N7Z/Gvzz1jUNa+MHjSa42XF9eXkvygKzf7taZnUWDrOdL3qk/wRpj6kcPNzh8b/A3/AIj/ALTviz4j3kjXGpTW9pJ923jb5V/GuFk1C7k3M1xcN7l2r3rwn+yJZ+B/Dra/48vFs7ONd4tEbbI3/AlryX4oeNLXxTrTLptnHY6Xb/JbxhV8zb/tN/E1fO4uniEvaYiWr6dTxa8aqjz1nqx3wf0e88XfEbSrK3kmZmuEdgC33VZWav0ssrdbW2jjXhVXAr5H/wCCf3wgkutXm8UXcO2OHdHbbl+9/C1fXq8ivrOHcPKnh3Ul1PocloyhR55dRaKKK+kPZCiiigAooooAKCcCiigDyX9tH9nu1/aZ/Z917wvOq/aLq3JtpP4onBDcf981/PT8TPh/qHwt8dal4f1S2ktb/TZ2iljkG1l/ytf03dq/P3/gr9/wTYX4y6HcePvCNmq+INPQve28a/8AH2n3mb3b5RXvZLmCoz9nPZnyfEuUyxEPb0/iX5H471NY382l3cc9vI0M0bbkdPvLTtS0240fUJra5hkt7i3ZkdHXaystV6+y3PzjZn6k/wDBNj/grza6zpFv4C+KF4qeZF9ltdTmk+VgV27Hb8lWuX/4KI/8EiNRu72++IHwzaTXrHVGa8ntIxuk+b5vkCr92vzgjkaGVXRmR1bcpH3lr6//AGGP+CtPi79mie20XXnbxB4V3bXilbdJCP8Aebc3/Aa8atgZ0p+3wnzR9Jh80pYmmsNj9uj7HyPrGj3Xh/UprO+t5La5t22PG67WVqrV+yXjz9nD4Ef8FSPBzeIPCt9Z6P4mkj+UoRCysf70Py7vm/ir88/2rP8Agmp8SP2WdUma+0qbUtI3N5V3aL525f7zBd22t8LmUKvuS919jix2TVaK9pT9+HdHj/wd09dU+KWg2zLuWa8RMf8AAq/pG+GVt9m+G3h+P/nnptsv5RrX84/7PsbW/wAdPDCSKyMuoxblK7dvzV/Rx4b1FNK+GWn3Un3LfTY5W/4DGDXi8SS+Fn0nB3w1JM3j0pu1T1Va+E/i3+2d4l8V+Jp/7Juvsemxv+5UJ82P96ux+BH7eU2kRyWvi52mjX/VTxxfMP8AZ2rX57DiDDSq+z/E+ijm9CU+Q+vM49KXd714b/w314H/AOfi6/8AAZ6P+G+fA/8Az8XX/gM9dn9rYT/n4jq/tDD/AM6Pcs+9GfevDf8AhvnwP/z8XX/gM9H/AA3z4H/5+Lr/AMBno/tbCf8APxB/aGH/AJ0e5Z96M+9eG/8ADfPgf/n4uv8AwGej/hvrwR/z8XX/AIDPR/a2E/5+IP7Qw/8AOj3EfT9a+AP22LNbP48Xyr/y0gR//Hmr6N/4b48D/wDPxd/+Az18tftOfEjT/ip8VJtW0tpGtZIEj+ddvzLurweIMZQq4dRpyu7nlZviqVSjaDuee0UUV8WfMArsp3L8pr9Mvg9rX9vfDfSLgc5t0T8lAr8za/RH9k26+2fA3SZN2cbx/wCPV9VwrU/fSj5HvcPy/eTRX/ab+GGqfFvw3p+kae6xQzXBF05/hTB/rXNrpvgf9jjwl5rC3m1hk4J/187f/E169qfiqxstXh064uo7e6uuIQ7bfNPov95vavHPiB+xLY/ELxDNfXWsXTSTNu2uWYL9Pmr6LG4Wal7ajC8336Hs4mi7upSV5/kfLXxw+PWsfGvXWmvJGjsY2/cW6t8q/wC1Wt+z5+zPqvxj1uGR4ZLbR1bdLcFflZf7q19N+CP2FvCHhe6juLmOa+mj5Xc5Vfyr2LTdGtdDs0t7OCG2hT7qRqFryMLkNWpV9tjGedh8onOftMSyt4N8J2fgrQbfTrGJYre3QKoHf3rVxt5oHyjmhm4r62MVFcsT6CMUlZDqKKKooKKKKACiiigAooooAKbIiyRsrDKtTqKAPz3/AOClH/BIfT/jHFfeMPANvDp+vY825sY4/wB3df3iFX+Jua/JDxp4L1X4feJLrSdasbjT9Qs38qeCVdrRt/dr+nT+Gvm79tP/AIJreCf2vtGmluLdNJ8RbCsWoQR/N/wJeAa9/Lc6lS/dVtj5DOuG41r1sNo+x+A9Fe3ftX/sEePP2TvE81vrGl3Fzpqs3lXturSxMv8ADuZV2q1eI19bSqxqR5oM+ArUKlKfJVVmdF8Mvix4h+D/AIkj1bw3qt5pN/D92W3fa3+7X6Dfsvf8FyjcaPH4d+K2krqlnMvlG7j2/MvrLub5q/NeiscRg6VZe+jqweZYjCv92z9mLf8AYl/Z9/bD1Ww8XfDnVNO0/UrWVbpotNZUj3/e+dcV9qHwr/xb3+xfM8xo7D7Jv/vER7M1/Nn4D+KXiD4Z6pDeaJqt5YTQtuXypWVf++a+0P2cf+C63j74bLBZ+LbW38T2cfyec7+TJGPoq/NXz+YZNWnG0ZcyPq8r4hwibVWPI5dtj2r4qfCPVvhX4muLC/tZljjfbFNt+WZf7y11nwQ/ZM1/4xpJcBf7Ps4/uyzq22T/AHa9U+BH/BVj4M/tDpbw3F5DpmotxIupW6wxof8Afc19MeE/Emh+ItOWXQ77Tby39bSRHX/x2vzWXCKpVuate3Y9PC5dhasueFS6Plf/AIdvav8A9Bqx/wDH/wDCj/h29q//AEGrH/x//CvsHAowK6f7Bwf8p6X9kYbsfH//AA7d1f8A6Den/wDj/wDhR/w7d1f/AKDen/8Aj/8AhX1H4h+Jfh/wedura5pOmn0ubpIv/QjWfpnx38Fa5OsNn4u8OXUrdFh1GJ2/Rqr/AFbwv8hn/ZuC+H9T5r/4dvav/wBBqx/8f/wo/wCHb2r/APQasf8Ax/8Awr6+hdZ4w6srI3KkGngCp/sHB/ymn9kYbsfHx/4JvauB/wAhqx/8f/wrwn4sfD5/hf40uNHkuI7l7f7zp92v0zmfbGzH0r83P2hNY/tj4xa5KrbljunT/vlmrwM8y/D4aknTWrPLzbB0aME4I4uiiivlT58K/Qz9kC3+z/AnSV/3/wD0KvzzjjaRlVV3N6Cv0m+Aek/8I38JtKhb5QkQds+43f1r6rhWP76UvI97IY/vHI+a/wDgsl4rvfhp8GvDfizS7qSx1bw7qT3VrKjbWDbNv/oJNekf8E+/2ydL/bG+DUGqRNHHrVgqQajb5+aOTB/oK+Ff+C7n7YWnePNX0r4d6HdR3C6PObi+ljbcpZlZGT/gNfPH/BLD9qG8/Zz/AGn9Hja4k/snXJVsbiJm/d7pGVVdv92v12nlcp4HmfxHLUzyNPNHCL9x6M/fMdKMZqG0vY7+1jmibdHIu9SP4hU1fOH2gUUUUAFFFFABRRRQAUUUUAFFFFABRRRQAUUUUAYfjjwBo3xF0GXTdb0+11KxmGHiuIxIp/OvzJ/4Ka/8EgdD8B+AtY8f+A2ks4dOQ3V3p5+ZSM4/dqq7Rywr9UD8w+tZfjHwra+M/C99pN9Cs9rewtFJG33WBrsweMqUJ3i9Dzcwy2jiqbU1qfzFyRskjKw2svytTa9X/bQ/Z7v/ANmv9oDXvDt5HIscdwz28hX5ZEb5vl/76ryiv0KnUjOMZRPyGtTdOo4S3iFFFFUZhXovwx/ay+InweuI20HxVrFnDH/y7pcP5Tf8B3V51RUypxnpJGlKrUg7wlY+8Pgv/wAF5fiR4LWO38SWen61Yx/88oNs7fizV33x9/4L+3Hi34afYfBPh680TW7kbZbm7dJVVed2AvRq/NGivPlleFcufkPVjn2OUOTnOy+In7QXjP4qapNda94i1TUHmZm2zTsyr/srWFofjjWPDN4txp+pXlnMvzK8UrK1fa//AATm/wCCQM37T/hdPFni7ULrR9DkcrbxRIrSXGOu5W/h+7XvH7Rv/BBDw+3ge6vPA2sXiaxaxFobWWJFinb/AGm5as6mZ4WnP2JvTyXH1aX1hL/M+ff2Df8AgsJ4u+CviSz0XxreXHiDw7cSLE8s77p4dx2ht7H7q/8Astfsb4A8daX8SfCVjrmj3Md5p+oxLNDKh+VlNfzReLPC994H8SX2lX8bW95p87wSof7ytt/9lr234Gf8FKfit8APCEOg6F4guY9Mtz+7iYLtX/x2uXMMnjXXPQ0Z2ZRxFPDN0sVdo/fzxDHM+g3i267rhoHEY9WxxXw94g/Y+8d+IfEl9dNprp9qnaTJ2/xH/er4ssP+C3XxitI9sl5HO3q7/wD2NLcf8Fu/jFOcrdxR/R//ALGvmMfwZUxlvaPY9TF5/l+Itz30PtrSv2BvGF6485obVfVk/wDsq6zQv+Cey6cytrfiTTwn8SoxjP8A49X5p+J/+Cwfx01/d9n8Y3enK3aFUb/0JK8v8fftqfFD4nxsmt+MNUvlk+9llj/9BWssP4e0V8Z58s4y6HwU3I/YjxJrn7P/AOyVbPPr2uafLdQru8u4fz9zf7O1a+Pf20P+C4V9400y48OfDWyk0exZfJkvpGDGRfu/IVwy/LX54XmsXWpHdcXNxcf9dHZqrV9Zl/DeEwmyOHFcRVpQ9lRXIvIs6xrF14h1O4vr64kurq4ffLLI25pG/vM1TeF9Uk0XxLY3ULbZredHT/eVqoV6J+yn8H7/AOOnx48O+HrC3kuGuLxGn2Lu8uLeu9v/AB6vcqSjCDbPEoxlOqlH4mf0I/s56jJrPwF8G3Ux/eXGj2sj/UxLXbbflxWL4A8Mp4K8FaRo8Z3JptpFag/7ihf6Vt1+aVPidj9poxappMKKKKRoFFFFABRRRQAUUUUAFFFFABRRRQAUUUUAFFFFAHwj/wAFp/2JT8dPhSnjTRLXzNe8NofNVF5kg5Z2P94rtFfjHNC9vIySKyPG21gV+Za/qA1LTodXsJrW4jWaC4QpIjfdYHtX4of8Fbf+CfF7+zh8Srnxdodq0vhPWpWlYoP+PWVvmfd/s8ivqMjzD/mHqfI+F4oynX63SXqfFlex/sMfC/wl8aP2gNN8MeMmuI9L1RHQSxT+U0b7fk/8e2145W18O/FU3gjx5pOrQu0b6feRT5H91XVm/wDQa+kqRk4NRPi8POMaqc1dH6AfHf8A4N//ABJoLTXfgzXLfUoT/q7N4isi/wDA2avkX4v/ALB/xS+CEjLr3hW+jWNvvwL5/wD6Dur97v2bvjBb/Hf4J+HfFNtIrLrFmlwwB+6W7V21xZxXkbJJHHIrcMCK+Rp55Xoy5KiufoNXhfCV489F2ufzCaho95pMm26tbi2b0liaP/0Kq1f0J/tHfsAfDf45+DNUhuvCul/2xcQt5F8Iz5sL+o5r8Gvjp8H9W+BfxO1Xw3rFtJbXWnzsmwrt+X+H/wAdr38vzKGLul7rPks2yWrgGpN8yZ++H/BPzxVo/i39lHwjJo7xNDBYxQSrGR8sqoof/wAer2e5nS0gaSRljROWZjgAV/P1+xx/wUb8efsaM9tos0epaPI25tNu3byFZurfLXq/7Rn/AAW++I/xt8F3Oh2Fjp/hqC8TZLPZO/nMP7vzV4WIySu67cdj6rC8T4WGGXP8S6HiX/BQjxJpXiz9rDxRdaL5f2Pz/L+T7u9WZW/8erxWppJLjWNQZ3Zprm6fcx/ikdm/+KrqLv4B+M9P0v7ZN4b1SO127/NMXy7f71fVU+WjBRkz4OpKVabqxRyNFXrjw3fwfK9rMn1Wmp4fvpPu20zf8Bo+sU/5jn5JlOitS38G6rdNtisbiRvZa6Lwb+zn44+IOsQ2Gj+GdWv7q4b5Eig3NUPHUI7zX3mkadR+7GJxNFfX3wx/4Ip/GP4gvH9psbfQUb732/fHt/8AHa+rvgF/wQC8OeHriC+8ba1cajcR8taQKjW0n13LurmrZphqe8j1cPw/ja20bep+ZPwX/Z78WfHzxVbaT4Z0e8vri4farqjLGv8AwL7tfs//AME1f+CbWl/sd+F/7U1QR3/i2+TMs+P+PcMOUX9K9/8Ag3+zz4P+AehLp/hTQ7HR7fGCIE27/eu3C7a+azDOJ11yQ0R9rk/DtLCv2tTWYuKKKK8Y+mCiiigAooooAKKKKACiiigAooooAKKKKACiiigAooooANvNcn8ZfhFo/wAcfAGoeHdctY7mxvoyjBh8ynswrrKKIylGXNEmcFJcsj+fv9vz9gbxD+xt8RLiOSGS68O3jtJZXiLuVk3fdb+633vvV871/Sn8evgJ4d/aJ+Hl54b8SWcd3Y3SkAsu5oWx99f9qvxO/wCCgf8AwTX8S/seeJJr63hk1LwncPmC8jVtsOeit+e2vtMrzaNaPsqu5+b55kEsNJ1qKvH8j7E/4IGftL/8JD4I1b4e6hc7rnTT9qtS7dIvlQItfpKq8V/OR+xp+0Pdfsx/H/QfFFu8i2tncIbyJG/10X91q/oc8AeMbX4geDdN1iyljmt9Qt0mRkPHzKGx+teLnmF9nW547M+j4XzD22G9i94m1jIzXzH+3n/wTZ8K/tmaR9qYR6V4nt0KwX0a/e77XA+925NfTijBoxXk0a06UueD1PocRh6deHs6quj8GvjR/wAEh/jB8I9UmVNFj1SwVv3U8E6s0i/7q/drkvA//BNf4vfEDVks7HwvMkkjbc3DeUv/AH01f0I4wP8AGlHT0+le1HiCvazSPmJcIYZyupOx+c/7CP8AwRKtfhdrNp4k+Ikkeoajbt5kWnq26OM9tzKdrV7t+3t4j0bwt4StvD9npumLcXn+tVbdF2xY+n94V9MaxqUek6Zc3crfu7eJpG+ijNfnL8f/AIlP8UfidqGob99tvKW/+5u+WviuKM4q+xs5as6cXh6GBw3saS3PPG8NabIPm0+xP/bFP8KT/hGNN/6B1j/4Dp/8TV6ivzj6xV/mPmeUpx+H7CP7tjZr9IF/+Jr61/4J9fA2O0Eniq6tY4l+ZLUbNv8Ass1eEfA74VXHxd8eWulwozQ7t87j+FN3zV+inhPw1a+D/D9rp9rGscNrGsfHfA619Nw/g6tWp7ersj3slwfPP2z2RrDpRQOlFfcH1gUUUUAFFFFABRRRQAUUUUAFFFFABRRRQAUUUUAFFFFABRRRQAUUUUAFFFFACFc1ieOfAGk/Efw9caVrNjb39jdIY5I5kDda21bdSmmnbUmUVJWZ+Sf/AAUK/wCCLN34LF54q+GELXemrmWfTP8AlpCP9j7zPXsX/BFL9qu8v/DN58K/Fi3FjrmhsWsorlWSSRPmZ/vf3eK/QfKkf/WryLx3+xz4T8T/ABCsfFmn2i6L4msJVb7ZafuWnTcGZXwPmztr1P7S9rR9jX+TPB/sdUMT9ZwundHsFFRxbhGu47m74qSvKPoAo6CjNQX15Hp1pJPM+yONdzMf4aAPCP26Pi5/whPgSPSbWTbfaocDafmVR979DXxDXoH7SnxQk+KnxQv7xmb7PC/kRJ/D8vy7v/Ha8/r8wzjHfWcQ2to7Hw+ZYr21ZvoFWNL0ubWL+G1tY2kmmbaqIu5qrqrSMqqu5q+uv2K/2Zv7Kt4/FGtQ/wCkSDdaxOv3P9r/AIEprHL8DPFVeVGWDwssRPkR6P8Asq/AWL4O+DEkuEU6pfKHnb+5/s161jik2c0H5Tmv03D4eFGmqUNkfb0aMaUFCI6igHNFdBsFFFFABRRRQAUUUUAFFFFABRRRQAUUUUAFFFFABRRRQAUUUUAFFFFABRRRQAUUUUAFFFFABQeaKKAGlcrXi37a3xXHgD4XzWcL4vNWBgUD7ygjrXs7uqRsx6Lya+Cf21PiY3jv4uXFsr5ttHJtkx91v4t3/j1eLnmM9hhXbd6Hm5piPZUXbdnjskheRmb5mblqKK9L/Zo+Alz8a/GUayK0el2rb7iT+8P7qtX53h6M61RUobs+Op05VZqEDtP2Of2ZX8f6xHr2rQsNLtW3RI4/1x7N+lfa9raR2lskcaqscYwAKpeG/Ddp4V0SGws41ht4E2qFXbWiOOK/TMtwEMLS5Fv1Pt8Dg44eFluOHFFFFekdgUUUUAFFFFABRRRQAUUUUAFFFFABRRRQAUUUUAFFFFABRRRQAUUUUAFFFFABRRRQAUUUUAFFFFABRRRQByvxj8YR+BfhzqmpSnCxwkfnxX5q6rqEmrahNczPvkmfcxNfZv8AwUJ8Y/2J8N7PTVfa2qSlSP8Ad2tXxUqtI21V3NXwPE2I566pdj5PO63PWUOxseAfBV58QvFVrpVjG0k1w/zbF+6v8TV+iXwT+Etl8IPBNtpdqi+Yq7ppB/y0f+9Xl/7FHwBHgXwuNe1CH/iZXy5QMv8Aq0/+yFfQA4+tezkGV+xh7ae7PSyjA+yh7SW7HUUUV9Ke0FFFFABRRRQAUUUUAFFFFABRRRQAUUUUAFFFFABRRRQAUUUUAFFFFABRRRQAUUUUAFFFFABRRRQAUUUUAFFFB6UAfFP/AAUP8TfbPiXbaXvytnCkuP8AeFcv+x/8FT8VPiHHcXUe7TdNbzZcr8sjD+Cof2trx/Fn7QV0kf7x2WK3X/vplr68/Zl+EcXwm+Gdpasm2+uFEt0f9uvh8Pg/reYyqS2iz5ejh/rONlOWyPQrW2Szt44o12rGoRR7CpqKK+4PqAooooAKKKKACiiigAooooAKKKKACiiigAooooAKKKKACiiigAooooAKKKKACiiigAooooAKKKKACiiigAooooAKR/uH6UtDfdoA+O/hh8Nv+FmftYatdTL5llpM7PKG+rKv/j1fYCjav6V578Cvhx/wiEmtX1xHsvNQv5if9zexWvROAv415uW4X2NNuW8nc4sFh/Zwv1Y6igHIor0jtCiiigAooooAKKKKACiiigAooooAKKKKACiiigAooooAKKKKACiiigAooooAKKKKACiiigAooooAKKKKACiiigAooooAaiBBwMU6iigAooooAKKKKACiiigAooooAKKKKACiiigAooooAKKKKACiiigD/9k=;" vertex="1" parent="1">
          <mxGeometry x="60" y="90" width="47.78" height="50" as="geometry" />
        </mxCell>
        <mxCell id="TxIqbtNnuaZMp80CDxAN-7" value="" style="html=1;verticalLabelPosition=bottom;align=center;labelBackgroundColor=#ffffff;verticalAlign=top;strokeWidth=2;strokeColor=#0080F0;shadow=0;dashed=0;shape=mxgraph.ios7.icons.user;" vertex="1" parent="1">
          <mxGeometry x="530" y="230" width="40" height="40" as="geometry" />
        </mxCell>
        <mxCell id="TxIqbtNnuaZMp80CDxAN-8" value="&lt;div style=&quot;text-align: left;&quot;&gt;&lt;br&gt;&lt;/div&gt;" style="rounded=1;whiteSpace=wrap;html=1;fillColor=#D4E1F5;" vertex="1" parent="1">
          <mxGeometry x="210" y="230" width="310" height="40" as="geometry" />
        </mxCell>
        <mxCell id="TxIqbtNnuaZMp80CDxAN-9" value="&lt;div style=&quot;text-align: justify;&quot;&gt;&lt;span style=&quot;background-color: initial;&quot;&gt;Which principal investigator led studies in which&lt;/span&gt;&lt;/div&gt;&lt;div style=&quot;text-align: justify;&quot;&gt;&lt;span style=&quot;background-color: initial;&quot;&gt;Dexmedetomidine was an intervention?&lt;/span&gt;&lt;/div&gt;" style="text;html=1;align=left;verticalAlign=middle;resizable=0;points=[];autosize=1;strokeColor=none;fillColor=none;" vertex="1" parent="1">
          <mxGeometry x="225" y="230" width="280" height="40" as="geometry" />
        </mxCell>
        <mxCell id="TxIqbtNnuaZMp80CDxAN-10" value="&lt;div style=&quot;text-align: justify;&quot;&gt;&lt;span style=&quot;background-color: initial;&quot;&gt;What are the drugs targeting the gene PLAUR?&lt;/span&gt;&lt;/div&gt;" style="text;html=1;align=center;verticalAlign=middle;resizable=0;points=[];autosize=1;strokeColor=none;fillColor=none;" vertex="1" parent="1">
          <mxGeometry x="225" y="45" width="280" height="30" as="geometry" />
        </mxCell>
        <mxCell id="TxIqbtNnuaZMp80CDxAN-12" value="&lt;div style=&quot;text-align: justify;&quot;&gt;&lt;span style=&quot;background-color: initial;&quot;&gt;The query regarding drugs targeting the gene &quot;PLAUR&quot; returned several results. These drugs include antiepileptic drugs, Dexmedetomidine, Haloperidol, Valproate, Chlorpromazine, Clobazam, Lorazepam, Clonazepam, and also Placebo in various roles as interventions. These drugs are listed in interventions of differing priorities or sequences, which may indicate their varied roles or context of use in research or therapeutics related to the gene PLAUR.&lt;/span&gt;&lt;/div&gt;" style="text;html=1;align=left;verticalAlign=middle;whiteSpace=wrap;rounded=0;" vertex="1" parent="1">
          <mxGeometry x="130" y="100" width="340" height="110" as="geometry" />
        </mxCell>
        <mxCell id="TxIqbtNnuaZMp80CDxAN-13" value="" style="rounded=1;whiteSpace=wrap;html=1;fillColor=#CCCCFF;" vertex="1" parent="1">
          <mxGeometry x="110" y="280" width="380" height="50" as="geometry" />
        </mxCell>
        <mxCell id="TxIqbtNnuaZMp80CDxAN-14" value="" style="shape=image;verticalLabelPosition=bottom;labelBackgroundColor=default;verticalAlign=top;aspect=fixed;imageAspect=0;image=data:image/jpeg,/9j/4AAQSkZJRgABAQEAkACQAAD/4QAiRXhpZgAATU0AKgAAAAgAAQESAAMAAAABAAEAAAAAAAD/2wBDAAIBAQIBAQICAgICAgICAwUDAwMDAwYEBAMFBwYHBwcGBwcICQsJCAgKCAcHCg0KCgsMDAwMBwkODw0MDgsMDAz/2wBDAQICAgMDAwYDAwYMCAcIDAwMDAwMDAwMDAwMDAwMDAwMDAwMDAwMDAwMDAwMDAwMDAwMDAwMDAwMDAwMDAwMDAz/wAARCAE7AS0DASIAAhEBAxEB/8QAHwAAAQUBAQEBAQEAAAAAAAAAAAECAwQFBgcICQoL/8QAtRAAAgEDAwIEAwUFBAQAAAF9AQIDAAQRBRIhMUEGE1FhByJxFDKBkaEII0KxwRVS0fAkM2JyggkKFhcYGRolJicoKSo0NTY3ODk6Q0RFRkdISUpTVFVWV1hZWmNkZWZnaGlqc3R1dnd4eXqDhIWGh4iJipKTlJWWl5iZmqKjpKWmp6ipqrKztLW2t7i5usLDxMXGx8jJytLT1NXW19jZ2uHi4+Tl5ufo6erx8vP09fb3+Pn6/8QAHwEAAwEBAQEBAQEBAQAAAAAAAAECAwQFBgcICQoL/8QAtREAAgECBAQDBAcFBAQAAQJ3AAECAxEEBSExBhJBUQdhcRMiMoEIFEKRobHBCSMzUvAVYnLRChYkNOEl8RcYGRomJygpKjU2Nzg5OkNERUZHSElKU1RVVldYWVpjZGVmZ2hpanN0dXZ3eHl6goOEhYaHiImKkpOUlZaXmJmaoqOkpaanqKmqsrO0tba3uLm6wsPExcbHyMnK0tPU1dbX2Nna4uPk5ebn6Onq8vP09fb3+Pn6/9oADAMBAAIRAxEAPwD9/KKKKACiiigAooooAKKKKACiiigAooooAKKKKACiiigBuMD6U2RlRSxbApxNeWftk/F6H4I/s4+KNcebyZ4bGVLY7sfvdjbaqnTlKSjEzqVFCDm+h6hFMs6hkYMvqKexyprgf2YfEM3i34EeGNTuubjUNPhuH/3mRTXfHjdSqR5Zco6c+aKkOHFFFFIsKKKKACiiigAooooAKKKKACiiigAooooAKKKKACiiigAooooAKKKKACiiigAooooAKKKKACiiigAooooAKKKKAG8Yr8wv+C9v7UBeHR/hjpNx5jXLfa73YfmjdGwAfwav0R+NPxU0/wCDPwx1jxJqcyw2ul25lZifwH6kV/P/APET4qah+1R+1s2t37M82uasiKn8KruVV2r/AMBr28lwvPU9s9ony/E2O9nSjh4fFP8AI/ez9lbT/wCzP2cfBEX8X9h2ZP8A35SvQX+7XNfB7TP7F+FXhyzYY+y6bbxf98xqK6Rjwa8aprUbPo6CtTSHUUUVJqFFFFABRRRQAUUUUAFFFFABRRRQAUUUUAFFFFABRRRQAUUUUAFFFFABRRRQAUUUUANVeKGGBQDtrG8ceOdP8AaDcajqVwsNvbrlv7zfQd6iUlFc0iZSSV2bPmU4HNc38OviVpfxQ0GPUNLuFmhft/Ev1FdElFOopq6CMlJXQ6iig81ZQ0cmgnH40Y5Ar5+/4KH/ALZGm/sjfA6+1BpEfWNQja3soN3zbmBXf/wFsVdOlKpNQiY4jEQo03Unsj4o/wCC5f7b66zfx/C/w/dZgt236pJE3yybht8pvowr43/4J6+AX+In7XHgy2Ub0tdRiunH+yjruryvx140v/iJ4sv9a1SZri+1Cdp5XLfxM1fcP/BBH4NN4t/aJv8AxTNF5lno9rJbf7KysFYf+g19vKnHCYJpdj8xp1p5hmSk+r/A/ZG2t1tbdY0G1UXAFSUA5or4U/VAooooAKKKKACiiigAooooAKKKKACiiigAooooAKKKKACiiigAooooAKKKKACiiigAooooAhuZ1tYGkkbCxjJNfCf7Y/x7m+JfjSbSrSZv7L012RQG+WR/u7q+nv2tfiY3w3+EF9PC226usQIPUP8AKf51+ff7y7uP4mkkb/gTV8fxJmElbDU/mfO53imrUYnpX7MXx4uvg542hV5G/sq8kVLiPd8vzfLv/wCA1+gWj6tDremQXlu3mQ3CLIjeoNfl1rWj3Hh/UntLhdk0e3d/3zur7R/YM+KbeLvAMuk3MnmXmmHJP/TM4C/yrPhzHSU3hqnyIyXGSUvYTPoCiiq+oajDpdlNczyLFDChd3Y7VUCvtD6Uxfif8SNJ+EngXUfEWuXUdnpulwNPNI7bQqivwL/4KAftjap+2B8arzVZpJF0mxdoLC33fLGn3dw/3tu6voD/AILBf8FFn+N3i+fwH4XvP+Kd0mVkuZoj8t0/zL/wJdtfBNfY5Ll/so+2nuz834jzh15+wpP3V+IIu5tq/er9tv8Agh/8A2+E/wCyv/bc8Pl3Hi6VL7kfMu0FK/H39nf4U3nxs+NHh/wzYIz3GpXSou1f7vzf+y1/Rp8LPBFr8OPAGkaJZxLDb6fbJGFH05/Wo4gxHLBUl1NuEcHz1XXl0OkHSiiivkT9CCiiigAooooAKKKKACiiigAooooAKKKKACiiigAooooAKKKKACiiigAooooAKKM0m4DuKAFoo3UZoA+Vf+Ck2stb23h+zU/JcB2b/gLLXzn8G9HXxB8UNFsXXctxc7cfg1fSH/BSTQXudO0HUFX93a70c/7xWvD/ANk6xF9+0D4b3dEudzf98tX57mlNzzPlfdHyGYR5sfyvyLP7XXhtfDfxov1RdkcyoyD/AHUWut/4J9a4+l/Fe5tg3y30So3/AAHc1S/8FDNMWx+JWmzKNv2iB2/75KrUP/BPnQ5NT+LF1dBfksYg7f8AAty0Uqcqea8se4qdPkx/LHufb+7GM1+bf/BYz/gpKvgnT7j4b+Dr7/iZXCf8TC5ik/1SN/D/ADFe2/8ABUn9v6z/AGUPhhNpelXMb+LdYiZLZVb5rdeV3/VWr8O/E3iS88Ya9dalqFxJc3l5K08sjtuZmZtzf+hV+yZLlvPL21XYniTOvZL6tRevUpSSM8jO7bmb7xptFbXw68F3XxE8a6Xolikklxql0luuxd23cyru/wDHq+t+FH5/GMpS5Yn6F/8ABBD9l1tf8X6p8RNStt1pYDydOcj7swb5v/HWr9ZRyOa8v/Y++Alp+zp8A9B8NwQrHNb2yNdED/WTbRub9K9Q+6tfn2YYr29dzP17J8F9Vw0afUdRRRXCeoNI+WjORXA/EX44Wvwr8RWsGswtDp958sV0g3Krf7f92ux0PXrPxFp6XVlPHc28nR423CsY1oSk4J6ozjUi5OK3L4OaKBRWxoFFFFABRRRQAUUUUAFFFFABRRRQAUUUUAFFFFABRRRQAUHmiigCPGK+If2uvH/ibwh8ZNSht9VvrW1kbfCkcpVcbV96+4MbfrXyr/wUS+Gr3EOm+IreP5IR9nlx6s27NeHn8JvCuUOh5ebQk6F4dDwvQ/2lPGWgyLJDrFxIy/8APVmk/wDZq9a+GH/BQnVLC4jh8SWsd5CflMkKrFj3rwDwXb6bea5Hbaq8kNrcfJ5sf3o2/hrrvih+zhrPgCyXUrcf2posq74ru3+ZNn+0a+NwuMxsY+0pyukfOYfEYqK54M+ufiCuh/tT/Be6i0q4jmbHnxgffV4/m2/nXzD+yd4fn8P/ALRmn2d5G0Nxaz7WQ+vzVyfwR+MmpfBzxhb3lrMwtmdVuIt3ysv8VfZ/h74X6H8Q/FWhePtLZYZmxNIq/wDLT5W+9/tfNXuYeUcwqQxC0nDf0PTpyjjJwqR+OO54v/wUls2m8aeGWjXc720q7R/F861Z8KeKdL/YY/Zb1Txr4hKx395EWijY7Wl6bF/WvePiX8HNI8b+MtL8Q6symHQoZDsf/V/eVtx+m2vx5/4K7ftsXP7Q/wAZZvC+lXLDwr4ZdoYokb5WnXcjt+i19TkvD7r5nLEz2Mc0qRwcp4l/FLY+cv2iPjxrf7RnxV1TxPrlzJPcX0rOiFv3cK/3VX+Fa4aiiv1eMYwjyxPzipUlOTqS3Cv0E/4IU/smD4h/FW78fapa79N0FTFAHHyyO68Mv+6y18H+C/Cd9488UWGj6fC1xfahKsUEafeZmr+hb9iH9niz/Zo/Z20Hw7bIomWAT3D4+Znf5ufpmvHzzGeyo8kd2fR8MZf7fE+1ltE9iooor4k/TgooooA4j47/AAwtviv8O77T5l/eKnmxN3DLyK+LPhj8ePE/7PHiySxeSSa3t38q4tpfm+7/AHd33a/Qg/8A66+Lf2+vhGvhjxfD4gtY9ltqTbZdo/5a/Mxavmc+oThFYqjpKJ4ubUpRSr0t0fTHwY+PWjfGXREuLGaOO5Ufvbdm+ZDXdjivy78FeONS+H3iCHUNLuZLa4hb+BvvL/dr7l/Zs/ai0/4y6YlpcPHbazGv7yEt/rPpWmUZ1HEfuquk/wAysvzSNb3J7nsFFGaM19EewBOKbvokrnviR8Q9P+GXhe41PUJlihhHGf4m7CoqVFCPNImUlFXZ0PIoUfNXxt4Q/bs1S5+L32i/by/D90fKEGf9Su773+9X2DpeoxavZRXNu6yQzLuVh3riwWYUcVf2fQ58LjKde/J0LVFFFegdQUUUUAFFFFABRRRQAUUUUAFFFFADWOQKwPiP4FtfiL4RvNKulzHdRlQf7p9a6D+H2pNvvUSipR5ZEyipKzPzR+MHwn1L4R+MLjT72GRY1bdFJ/Cyfw/NXpH7MP7Ta+CHXQfEQW70O4bb+9XzPJr63+K/wa0b4waC1rqkCsyj91MB88R9q+VPiR+wL4i8P3Ukmjyx6la/8s40B8z/AIFXxWIyrE4Ot7bDe9E+ZrZfWw1X2lDVHXfHj9jix8XaY/iLwXJG4kj81rcPuVv4jt/+Jrsv2ENYvovh7eaPqEcsdxp9ww2SKV2D5RiuH/Ztj+KXwi1SPTr7w7qVxosjbWVwv7n/AGh81fTtppFjpP2jUYrWO1mmQyTNj5m78162W4SE6ixEFyPqj0MHRg5fWIrlfVHyx/wV7/a9X9m79nufTNPnVdf8SL5EKZ+byWykjfhkV+Gt3eSahdSTTO0kkjbnd23MzV9Jf8FT/wBp+T9pX9p3UpobhptH0Mva2C7t21fl3/8Ajy1801+v5Tg/Y0U+sj8/4gzD61iXbZaIKKKmsLGTVNQt7aFd0lxKsSD/AGmbatemeGj7o/4Ic/ssf8LT+ObeNNQg3ab4XIlt3K7la4Vl4/75av2YysEXZFUfgK+df+CXv7Osf7PP7J+g2ckPk6lq8KXt8m3aVlK4P8q7T9sn4gXvw6+Dd1dac7R3M0qQbx/CrcGvznPMwjzzrPZH6tlGHWCwKk992dtdfFrw7Y6n9jm1azWfpt85f8a6C2vI72ASQyJJG3RlbcK/K64vJLy6aaV2eaRtzOfvbq9V+Hf7ZPiz4daAmnW7W91BH/q/tG5mWviaHFEHL97GyJo57GUrVFY/QD5qPmr4d/4eEeMv+ffTf++T/wDFUf8ADwjxl/z76b/3yf8A4quz/WTCef3HV/bWHPuLt71wf7RHw3j+J3wu1Kx8tXuvKZrc/wB16+Wf+HhHjL/n303/AL5P/wAVTZP+CgnjKSMq1vpvzf7Lf/FVlWz/AAdSm4O+vkZ1M2w04uDPDtQs30++mt3Xa8Lsjf8AAWq54X8UXng/Wre/sJpIbi3bcpDUnibxBJ4o1y4vpI44ZLht7JGvy1n18Jz8k+aB8n8MvdP0D/Zk/aJtPjZ4XVJnWLVrUbZ4/wC9/tCvVwM1+Y/wv+I198MPGFtqthIyvC3zoG/1i/3a/RD4TfEqx+Kngu11WxkWRZRtkAP3XH3h+dfoGSZt9ZhyT+JH1+V5h7aHJPdHTSuqKWZsKBnJr4N/bD+O83xO8cS2FrI39l6e2xAPuu3fd/wKvq79qTx43gT4OatcRybLmaAxwH/br875pHvLp3b5pJm3H/eauHibHSjFYeHXc5M6xTVqMSOvtf8AYN+Lj+L/AANLot1Lm50sqkW4/M6HJJr5d+LHw5/4Qex0GbZs/tKwinb/AHmrqf2JPFb+Gvjbaru/d3UTxMv+022vEymtPC4xRf2jzcvqSw+JUZfaPv6igdKK/ST7QKKKKACiiigAooooAKKKKACiiigBpyF6Vg+PPiHonw08PT6lrmpWum2cK7meeUJ+Wap/GX4q6V8Ffh1qniXWbhbfT9LhMsjE/l+tfhN+3T/wUD8V/te+PbwyXlxY+GYXK2dgj7V2+r/NtZq9LL8uniZeR4ucZxDBQ7yfQ+8P2jf+C62i6Lrf9g/DbSJPEF9NL9nW4uFeBVcnb8vXd81fUv7HGk/EDWfAlt4j+ImptNquqRCVNPVFVbBT/BlfvfjX4pf8E6PBdn4+/a88J6ffJG9u07S4f7u5F3L/AOg1/QtEgRMD7uOK6c2w9LDWo00cGQYqvjZSr1ntsiVlHGeteB/8FJPj+v7Pn7KHibVI5vK1O5tTDYf7UuV/9lzXvhORX5af8HCnxo82bwv4Ihk2vbyf2hKgP3kdGXmuHLcP7bERgernOK9hhJTW5+ZGqag+qahcXMjbpLh2lb/eZt1V6KK/Q1ofj/mFe7f8E5PgO/7QP7VnhvR2jZ7aGX7XK38K+V865/75rwmv08/4N7vg95t94o8XXUOVUJDZvj3ZXrhzDEeyw8pnq5Phfb4uEGfqVawLaW6xxqFReAB2rm/i78M7X4seCbrR7rhZvnRv7jj7prqulVpdQt4X2vNEjejOBX5xUjGcXCezP1ucIyjys+H9T/YC8aw64YLVbGaz3cSvcKrbfXbXuvw0/Ye8LeHfDEcOtWn9pXzcySbyv8q9whZXGVbcPanHg9a8vD5HhKUuZK/qcVHK8PB8yVzzD/hj3wD/ANANP+/rUf8ADHvgH/oBp/39Nen4PtS4PtXb9Rw3/PtfcdP1Wj/Ijy//AIY98A/9ANP+/po/4Y98A/8AQDT/AL+tXqGD7Uc+1H1HDf8APtfcH1Wj/Ij5F/bR/Zx0P4e+BoNY0OxFqscqxS7SzbtzV8vV+j/7RvhRPGHwf1i3Zd3kwNcKPdFLV+cDK0bMrfKy18PxFg1SrqUFZM+XzrDxp1FKK0YV7h+xR8cT8PPHC6XeTY03UuBuP+rb/wDarw+pLO6ezuo5kba8Lq4/3lrycHiJYeqqkOh5uGrSpVFNH2n/AMFErt4vhHpvlt8sl7hsemxq+OvBentqni3S7ZV3edeRJ/30619Q+Ktfb9oL9j/7X/rtQ0NN9x/eaRV/+vXhn7M+htrnxl0q3ZNzRv5uP91lavYzb9/i4TW0rHqY/wDe4iEltKx6f+3roC6BF4dgVflt4lg/75Vq8u/Zkge4+NGiqn3lnVm/3dy17P8A8FIJM3ejr/tf+ytXMfsCfDiTxD8SZNakTdZ6fEUzt/jbaw/lVYjD82ackO6HXp82YcsT7dA4oL0ye5jt48yOiD/abFYmqfErQ9Ifbc6laRn3evvJVIx+Jn1bko7m6HzTq5zT/ip4f1OZY4dUtHkY4ADV0KSCRAy80RqRn8LCMk9h1FFFaFBRRRQAUUUUAFFFFAH50f8ABwJ8Ybzwz8J/DPhqxlaNdWu5FvMNt3JsDKP++hX5FV+sH/Bwz8O7i98AeD/EFujSRw3sqT4/5ZhYuG/Wvyfr7jI+X6suU/LeJuf67K53n7M/xQk+Dfxw8PeII22/Y7xFkP8AdRmVW/8AHa/oz+HnjrT/AIl+C9N1zS5luNP1SBZ4ZB/Epr+ZCv02/wCCLv8AwUTh0CKD4Y+Lr5Y4GIj0m4lb5V+6qxfzrnzzButD2sN0dXC2aRo1XQns/wAz9VAMH8K/B/8A4LEfEb/hYH7Z2tL5m/8AscfYPvfd2O1futfaglvo010jKVjhaUEdDgbq/nP/AG1NabxB+1d4/vN2/wC0azM6/wDfVefw7T/fOR7XF9W2HhDuzy+iiivsD85Cv3a/4Iz/AA0T4d/sUaMskW26vbm4md/4mDPuH86/CmztZL66SFF3PI21a/pE/ZY8Jw+Cf2ffCNjANq/2TayN/vNChNfPcRVLU4w7n2HCNG+IlU7I2vjJ46Pw3+G2rawieZJZwM6J/eNfnn4u+LniDxfr0l/daldNIz7l527f9mv0T+KXgeL4j+A9T0WRti6hAYt3pXwb4v8A2XPF3hbxBJZ/2XJNHvxE6fdZa/IuJKeIco+z2Po86jXbXJsdr8Gf25tW+H+hNp+qQ/2okf8AqpJCdy/7PFdp/wAPIP8AqCw/99PWb8GP2BjruhNdeKGktppPuRI+1l9/lrtv+HePhXH/AB8XX/f5qywtPN/ZrlenmRh6eY8iszm/+HkP/UFi/wC+no/4eQ/9QWL/AL6euk/4d4eFv+e91/3/ADR/w7w8Lf8APe6/7/mun2ec90aezzDuc3/w8h/6gsX/AH09H/DyH/qCxf8AfT10n/DvDwt/z3uv+/5o/wCHeHhb/nvdf9/zR7POe6D2eY9zkdc/4KGJq+kXNq+iw7biJom+Y/xLXzDrF4mo6pPcJHsSZ2dU/u19l/8ADvTwr/z3uv8Av8a+VvjR4Fj+G/xEv9Jt2Zobdvkz/d3NXh5xRx3Ip4o83MqeJ5VKucrRRRXgnkn0F+wZ40jh8X33h2+2vZanFhYz91nZlrtPhv8As7Xnwu/a0t5ljaTSLqG4lil2/KrYztavnL4L+Jz4O+KOiakr7VtbpXav0n0549SsrW62qWkiVwcdMivssjpwxVFKe9Nn0mV0416SUt4M+aP20Ph9qvxT+J2i6PpcEkrbQzvt+WMYbktW3qvxF8O/sZfDqHRrXy7zWpE3Og/jf/a2/dr1v4seL7P4beCdT1+SOPzrWDhto3N7Z/Gvzz1jUNa+MHjSa42XF9eXkvygKzf7taZnUWDrOdL3qk/wRpj6kcPNzh8b/A3/AIj/ALTviz4j3kjXGpTW9pJ923jb5V/GuFk1C7k3M1xcN7l2r3rwn+yJZ+B/Dra/48vFs7ONd4tEbbI3/AlryX4oeNLXxTrTLptnHY6Xb/JbxhV8zb/tN/E1fO4uniEvaYiWr6dTxa8aqjz1nqx3wf0e88XfEbSrK3kmZmuEdgC33VZWav0ssrdbW2jjXhVXAr5H/wCCf3wgkutXm8UXcO2OHdHbbl+9/C1fXq8ivrOHcPKnh3Ul1PocloyhR55dRaKKK+kPZCiiigAooooAKCcCiigDyX9tH9nu1/aZ/Z917wvOq/aLq3JtpP4onBDcf981/PT8TPh/qHwt8dal4f1S2ktb/TZ2iljkG1l/ytf03dq/P3/gr9/wTYX4y6HcePvCNmq+INPQve28a/8AH2n3mb3b5RXvZLmCoz9nPZnyfEuUyxEPb0/iX5H471NY382l3cc9vI0M0bbkdPvLTtS0240fUJra5hkt7i3ZkdHXaystV6+y3PzjZn6k/wDBNj/grza6zpFv4C+KF4qeZF9ltdTmk+VgV27Hb8lWuX/4KI/8EiNRu72++IHwzaTXrHVGa8ntIxuk+b5vkCr92vzgjkaGVXRmR1bcpH3lr6//AGGP+CtPi79mie20XXnbxB4V3bXilbdJCP8Aebc3/Aa8atgZ0p+3wnzR9Jh80pYmmsNj9uj7HyPrGj3Xh/UprO+t5La5t22PG67WVqrV+yXjz9nD4Ef8FSPBzeIPCt9Z6P4mkj+UoRCysf70Py7vm/ir88/2rP8Agmp8SP2WdUma+0qbUtI3N5V3aL525f7zBd22t8LmUKvuS919jix2TVaK9pT9+HdHj/wd09dU+KWg2zLuWa8RMf8AAq/pG+GVt9m+G3h+P/nnptsv5RrX84/7PsbW/wAdPDCSKyMuoxblK7dvzV/Rx4b1FNK+GWn3Un3LfTY5W/4DGDXi8SS+Fn0nB3w1JM3j0pu1T1Va+E/i3+2d4l8V+Jp/7Juvsemxv+5UJ82P96ux+BH7eU2kRyWvi52mjX/VTxxfMP8AZ2rX57DiDDSq+z/E+ijm9CU+Q+vM49KXd714b/w314H/AOfi6/8AAZ6P+G+fA/8Az8XX/gM9dn9rYT/n4jq/tDD/AM6Pcs+9GfevDf8AhvnwP/z8XX/gM9H/AA3z4H/5+Lr/AMBno/tbCf8APxB/aGH/AJ0e5Z96M+9eG/8ADfPgf/n4uv8AwGej/hvrwR/z8XX/AIDPR/a2E/5+IP7Qw/8AOj3EfT9a+AP22LNbP48Xyr/y0gR//Hmr6N/4b48D/wDPxd/+Az18tftOfEjT/ip8VJtW0tpGtZIEj+ddvzLurweIMZQq4dRpyu7nlZviqVSjaDuee0UUV8WfMArsp3L8pr9Mvg9rX9vfDfSLgc5t0T8lAr8za/RH9k26+2fA3SZN2cbx/wCPV9VwrU/fSj5HvcPy/eTRX/ab+GGqfFvw3p+kae6xQzXBF05/hTB/rXNrpvgf9jjwl5rC3m1hk4J/187f/E169qfiqxstXh064uo7e6uuIQ7bfNPov95vavHPiB+xLY/ELxDNfXWsXTSTNu2uWYL9Pmr6LG4Wal7ajC8336Hs4mi7upSV5/kfLXxw+PWsfGvXWmvJGjsY2/cW6t8q/wC1Wt+z5+zPqvxj1uGR4ZLbR1bdLcFflZf7q19N+CP2FvCHhe6juLmOa+mj5Xc5Vfyr2LTdGtdDs0t7OCG2hT7qRqFryMLkNWpV9tjGedh8onOftMSyt4N8J2fgrQbfTrGJYre3QKoHf3rVxt5oHyjmhm4r62MVFcsT6CMUlZDqKKKooKKKKACiiigAooooAKbIiyRsrDKtTqKAPz3/AOClH/BIfT/jHFfeMPANvDp+vY825sY4/wB3df3iFX+Jua/JDxp4L1X4feJLrSdasbjT9Qs38qeCVdrRt/dr+nT+Gvm79tP/AIJreCf2vtGmluLdNJ8RbCsWoQR/N/wJeAa9/Lc6lS/dVtj5DOuG41r1sNo+x+A9Fe3ftX/sEePP2TvE81vrGl3Fzpqs3lXturSxMv8ADuZV2q1eI19bSqxqR5oM+ArUKlKfJVVmdF8Mvix4h+D/AIkj1bw3qt5pN/D92W3fa3+7X6Dfsvf8FyjcaPH4d+K2krqlnMvlG7j2/MvrLub5q/NeiscRg6VZe+jqweZYjCv92z9mLf8AYl/Z9/bD1Ww8XfDnVNO0/UrWVbpotNZUj3/e+dcV9qHwr/xb3+xfM8xo7D7Jv/vER7M1/Nn4D+KXiD4Z6pDeaJqt5YTQtuXypWVf++a+0P2cf+C63j74bLBZ+LbW38T2cfyec7+TJGPoq/NXz+YZNWnG0ZcyPq8r4hwibVWPI5dtj2r4qfCPVvhX4muLC/tZljjfbFNt+WZf7y11nwQ/ZM1/4xpJcBf7Ps4/uyzq22T/AHa9U+BH/BVj4M/tDpbw3F5DpmotxIupW6wxof8Afc19MeE/Emh+ItOWXQ77Tby39bSRHX/x2vzWXCKpVuate3Y9PC5dhasueFS6Plf/AIdvav8A9Bqx/wDH/wDCj/h29q//AEGrH/x//CvsHAowK6f7Bwf8p6X9kYbsfH//AA7d1f8A6Den/wDj/wDhR/w7d1f/AKDen/8Aj/8AhX1H4h+Jfh/wedura5pOmn0ubpIv/QjWfpnx38Fa5OsNn4u8OXUrdFh1GJ2/Rqr/AFbwv8hn/ZuC+H9T5r/4dvav/wBBqx/8f/wo/wCHb2r/APQasf8Ax/8Awr6+hdZ4w6srI3KkGngCp/sHB/ymn9kYbsfHx/4JvauB/wAhqx/8f/wrwn4sfD5/hf40uNHkuI7l7f7zp92v0zmfbGzH0r83P2hNY/tj4xa5KrbljunT/vlmrwM8y/D4aknTWrPLzbB0aME4I4uiiivlT58K/Qz9kC3+z/AnSV/3/wD0KvzzjjaRlVV3N6Cv0m+Aek/8I38JtKhb5QkQds+43f1r6rhWP76UvI97IY/vHI+a/wDgsl4rvfhp8GvDfizS7qSx1bw7qT3VrKjbWDbNv/oJNekf8E+/2ydL/bG+DUGqRNHHrVgqQajb5+aOTB/oK+Ff+C7n7YWnePNX0r4d6HdR3C6PObi+ljbcpZlZGT/gNfPH/BLD9qG8/Zz/AGn9Hja4k/snXJVsbiJm/d7pGVVdv92v12nlcp4HmfxHLUzyNPNHCL9x6M/fMdKMZqG0vY7+1jmibdHIu9SP4hU1fOH2gUUUUAFFFFABRRRQAUUUUAFFFFABRRRQAUUUUAYfjjwBo3xF0GXTdb0+11KxmGHiuIxIp/OvzJ/4Ka/8EgdD8B+AtY8f+A2ks4dOQ3V3p5+ZSM4/dqq7Rywr9UD8w+tZfjHwra+M/C99pN9Cs9rewtFJG33WBrsweMqUJ3i9Dzcwy2jiqbU1qfzFyRskjKw2svytTa9X/bQ/Z7v/ANmv9oDXvDt5HIscdwz28hX5ZEb5vl/76ryiv0KnUjOMZRPyGtTdOo4S3iFFFFUZhXovwx/ay+InweuI20HxVrFnDH/y7pcP5Tf8B3V51RUypxnpJGlKrUg7wlY+8Pgv/wAF5fiR4LWO38SWen61Yx/88oNs7fizV33x9/4L+3Hi34afYfBPh680TW7kbZbm7dJVVed2AvRq/NGivPlleFcufkPVjn2OUOTnOy+In7QXjP4qapNda94i1TUHmZm2zTsyr/srWFofjjWPDN4txp+pXlnMvzK8UrK1fa//AATm/wCCQM37T/hdPFni7ULrR9DkcrbxRIrSXGOu5W/h+7XvH7Rv/BBDw+3ge6vPA2sXiaxaxFobWWJFinb/AGm5as6mZ4WnP2JvTyXH1aX1hL/M+ff2Df8AgsJ4u+CviSz0XxreXHiDw7cSLE8s77p4dx2ht7H7q/8Astfsb4A8daX8SfCVjrmj3Md5p+oxLNDKh+VlNfzReLPC994H8SX2lX8bW95p87wSof7ytt/9lr234Gf8FKfit8APCEOg6F4guY9Mtz+7iYLtX/x2uXMMnjXXPQ0Z2ZRxFPDN0sVdo/fzxDHM+g3i267rhoHEY9WxxXw94g/Y+8d+IfEl9dNprp9qnaTJ2/xH/er4ssP+C3XxitI9sl5HO3q7/wD2NLcf8Fu/jFOcrdxR/R//ALGvmMfwZUxlvaPY9TF5/l+Itz30PtrSv2BvGF6485obVfVk/wDsq6zQv+Cey6cytrfiTTwn8SoxjP8A49X5p+J/+Cwfx01/d9n8Y3enK3aFUb/0JK8v8fftqfFD4nxsmt+MNUvlk+9llj/9BWssP4e0V8Z58s4y6HwU3I/YjxJrn7P/AOyVbPPr2uafLdQru8u4fz9zf7O1a+Pf20P+C4V9400y48OfDWyk0exZfJkvpGDGRfu/IVwy/LX54XmsXWpHdcXNxcf9dHZqrV9Zl/DeEwmyOHFcRVpQ9lRXIvIs6xrF14h1O4vr64kurq4ffLLI25pG/vM1TeF9Uk0XxLY3ULbZredHT/eVqoV6J+yn8H7/AOOnx48O+HrC3kuGuLxGn2Lu8uLeu9v/AB6vcqSjCDbPEoxlOqlH4mf0I/s56jJrPwF8G3Ux/eXGj2sj/UxLXbbflxWL4A8Mp4K8FaRo8Z3JptpFag/7ihf6Vt1+aVPidj9poxappMKKKKRoFFFFABRRRQAUUUUAFFFFABRRRQAUUUUAFFFFAHwj/wAFp/2JT8dPhSnjTRLXzNe8NofNVF5kg5Z2P94rtFfjHNC9vIySKyPG21gV+Za/qA1LTodXsJrW4jWaC4QpIjfdYHtX4of8Fbf+CfF7+zh8Srnxdodq0vhPWpWlYoP+PWVvmfd/s8ivqMjzD/mHqfI+F4oynX63SXqfFlex/sMfC/wl8aP2gNN8MeMmuI9L1RHQSxT+U0b7fk/8e2145W18O/FU3gjx5pOrQu0b6feRT5H91XVm/wDQa+kqRk4NRPi8POMaqc1dH6AfHf8A4N//ABJoLTXfgzXLfUoT/q7N4isi/wDA2avkX4v/ALB/xS+CEjLr3hW+jWNvvwL5/wD6Dur97v2bvjBb/Hf4J+HfFNtIrLrFmlwwB+6W7V21xZxXkbJJHHIrcMCK+Rp55Xoy5KiufoNXhfCV489F2ufzCaho95pMm26tbi2b0liaP/0Kq1f0J/tHfsAfDf45+DNUhuvCul/2xcQt5F8Iz5sL+o5r8Gvjp8H9W+BfxO1Xw3rFtJbXWnzsmwrt+X+H/wAdr38vzKGLul7rPks2yWrgGpN8yZ++H/BPzxVo/i39lHwjJo7xNDBYxQSrGR8sqoof/wAer2e5nS0gaSRljROWZjgAV/P1+xx/wUb8efsaM9tos0epaPI25tNu3byFZurfLXq/7Rn/AAW++I/xt8F3Oh2Fjp/hqC8TZLPZO/nMP7vzV4WIySu67cdj6rC8T4WGGXP8S6HiX/BQjxJpXiz9rDxRdaL5f2Pz/L+T7u9WZW/8erxWppJLjWNQZ3Zprm6fcx/ikdm/+KrqLv4B+M9P0v7ZN4b1SO127/NMXy7f71fVU+WjBRkz4OpKVabqxRyNFXrjw3fwfK9rMn1Wmp4fvpPu20zf8Bo+sU/5jn5JlOitS38G6rdNtisbiRvZa6Lwb+zn44+IOsQ2Gj+GdWv7q4b5Eig3NUPHUI7zX3mkadR+7GJxNFfX3wx/4Ip/GP4gvH9psbfQUb732/fHt/8AHa+rvgF/wQC8OeHriC+8ba1cajcR8taQKjW0n13LurmrZphqe8j1cPw/ja20bep+ZPwX/Z78WfHzxVbaT4Z0e8vri4farqjLGv8AwL7tfs//AME1f+CbWl/sd+F/7U1QR3/i2+TMs+P+PcMOUX9K9/8Ag3+zz4P+AehLp/hTQ7HR7fGCIE27/eu3C7a+azDOJ11yQ0R9rk/DtLCv2tTWYuKKKK8Y+mCiiigAooooAKKKKACiiigAooooAKKKKACiiigAooooANvNcn8ZfhFo/wAcfAGoeHdctY7mxvoyjBh8ynswrrKKIylGXNEmcFJcsj+fv9vz9gbxD+xt8RLiOSGS68O3jtJZXiLuVk3fdb+633vvV871/Sn8evgJ4d/aJ+Hl54b8SWcd3Y3SkAsu5oWx99f9qvxO/wCCgf8AwTX8S/seeJJr63hk1LwncPmC8jVtsOeit+e2vtMrzaNaPsqu5+b55kEsNJ1qKvH8j7E/4IGftL/8JD4I1b4e6hc7rnTT9qtS7dIvlQItfpKq8V/OR+xp+0Pdfsx/H/QfFFu8i2tncIbyJG/10X91q/oc8AeMbX4geDdN1iyljmt9Qt0mRkPHzKGx+teLnmF9nW547M+j4XzD22G9i94m1jIzXzH+3n/wTZ8K/tmaR9qYR6V4nt0KwX0a/e77XA+925NfTijBoxXk0a06UueD1PocRh6deHs6quj8GvjR/wAEh/jB8I9UmVNFj1SwVv3U8E6s0i/7q/drkvA//BNf4vfEDVks7HwvMkkjbc3DeUv/AH01f0I4wP8AGlHT0+le1HiCvazSPmJcIYZyupOx+c/7CP8AwRKtfhdrNp4k+Ikkeoajbt5kWnq26OM9tzKdrV7t+3t4j0bwt4StvD9npumLcXn+tVbdF2xY+n94V9MaxqUek6Zc3crfu7eJpG+ijNfnL8f/AIlP8UfidqGob99tvKW/+5u+WviuKM4q+xs5as6cXh6GBw3saS3PPG8NabIPm0+xP/bFP8KT/hGNN/6B1j/4Dp/8TV6ivzj6xV/mPmeUpx+H7CP7tjZr9IF/+Jr61/4J9fA2O0Eniq6tY4l+ZLUbNv8Ass1eEfA74VXHxd8eWulwozQ7t87j+FN3zV+inhPw1a+D/D9rp9rGscNrGsfHfA619Nw/g6tWp7ersj3slwfPP2z2RrDpRQOlFfcH1gUUUUAFFFFABRRRQAUUUUAFFFFABRRRQAUUUUAFFFFABRRRQAUUUUAFFFFACFc1ieOfAGk/Efw9caVrNjb39jdIY5I5kDda21bdSmmnbUmUVJWZ+Sf/AAUK/wCCLN34LF54q+GELXemrmWfTP8AlpCP9j7zPXsX/BFL9qu8v/DN58K/Fi3FjrmhsWsorlWSSRPmZ/vf3eK/QfKkf/WryLx3+xz4T8T/ABCsfFmn2i6L4msJVb7ZafuWnTcGZXwPmztr1P7S9rR9jX+TPB/sdUMT9ZwundHsFFRxbhGu47m74qSvKPoAo6CjNQX15Hp1pJPM+yONdzMf4aAPCP26Pi5/whPgSPSbWTbfaocDafmVR979DXxDXoH7SnxQk+KnxQv7xmb7PC/kRJ/D8vy7v/Ha8/r8wzjHfWcQ2to7Hw+ZYr21ZvoFWNL0ubWL+G1tY2kmmbaqIu5qrqrSMqqu5q+uv2K/2Zv7Kt4/FGtQ/wCkSDdaxOv3P9r/AIEprHL8DPFVeVGWDwssRPkR6P8Asq/AWL4O+DEkuEU6pfKHnb+5/s161jik2c0H5Tmv03D4eFGmqUNkfb0aMaUFCI6igHNFdBsFFFFABRRRQAUUUUAFFFFABRRRQAUUUUAFFFFABRRRQAUUUUAFFFFABRRRQAUUUUAFFFFABQeaKKAGlcrXi37a3xXHgD4XzWcL4vNWBgUD7ygjrXs7uqRsx6Lya+Cf21PiY3jv4uXFsr5ttHJtkx91v4t3/j1eLnmM9hhXbd6Hm5piPZUXbdnjskheRmb5mblqKK9L/Zo+Alz8a/GUayK0el2rb7iT+8P7qtX53h6M61RUobs+Op05VZqEDtP2Of2ZX8f6xHr2rQsNLtW3RI4/1x7N+lfa9raR2lskcaqscYwAKpeG/Ddp4V0SGws41ht4E2qFXbWiOOK/TMtwEMLS5Fv1Pt8Dg44eFluOHFFFFekdgUUUUAFFFFABRRRQAUUUUAFFFFABRRRQAUUUUAFFFFABRRRQAUUUUAFFFFABRRRQAUUUUAFFFFABRRRQByvxj8YR+BfhzqmpSnCxwkfnxX5q6rqEmrahNczPvkmfcxNfZv8AwUJ8Y/2J8N7PTVfa2qSlSP8Ad2tXxUqtI21V3NXwPE2I566pdj5PO63PWUOxseAfBV58QvFVrpVjG0k1w/zbF+6v8TV+iXwT+Etl8IPBNtpdqi+Yq7ppB/y0f+9Xl/7FHwBHgXwuNe1CH/iZXy5QMv8Aq0/+yFfQA4+tezkGV+xh7ae7PSyjA+yh7SW7HUUUV9Ke0FFFFABRRRQAUUUUAFFFFABRRRQAUUUUAFFFFABRRRQAUUUUAFFFFABRRRQAUUUUAFFFFABRRRQAUUUUAFFFB6UAfFP/AAUP8TfbPiXbaXvytnCkuP8AeFcv+x/8FT8VPiHHcXUe7TdNbzZcr8sjD+Cof2trx/Fn7QV0kf7x2WK3X/vplr68/Zl+EcXwm+Gdpasm2+uFEt0f9uvh8Pg/reYyqS2iz5ejh/rONlOWyPQrW2Szt44o12rGoRR7CpqKK+4PqAooooAKKKKACiiigAooooAKKKKACiiigAooooAKKKKACiiigAooooAKKKKACiiigAooooAKKKKACiiigAooooAKR/uH6UtDfdoA+O/hh8Nv+FmftYatdTL5llpM7PKG+rKv/j1fYCjav6V578Cvhx/wiEmtX1xHsvNQv5if9zexWvROAv415uW4X2NNuW8nc4sFh/Zwv1Y6igHIor0jtCiiigAooooAKKKKACiiigAooooAKKKKACiiigAooooAKKKKACiiigAooooAKKKKACiiigAooooAKKKKACiiigAooooAaiBBwMU6iigAooooAKKKKACiiigAooooAKKKKACiiigAooooAKKKKACiiigD/9k=;" vertex="1" parent="1">
          <mxGeometry x="60" y="280" width="47.78" height="50" as="geometry" />
        </mxCell>
        <mxCell id="TxIqbtNnuaZMp80CDxAN-15" value="&lt;div style=&quot;text-align: justify;&quot;&gt;The principal investigator who led studies involving Dexmedetomidine as an intervention is Dr. Pekka Talke.&lt;br&gt;&lt;/div&gt;" style="text;html=1;align=left;verticalAlign=middle;whiteSpace=wrap;rounded=0;" vertex="1" parent="1">
          <mxGeometry x="130" y="290" width="340" height="30" as="geometry" />
        </mxCell>
      </root>
    </mxGraphModel>
  </diagram>
</mxfile>
